<svg width="97" height="29" viewBox="0 0 97 29" fill="none" xmlns="http://www.w3.org/2000/svg">
<g clip-path="url(#clip0)">
<path d="M27.2867 22.9736C23.9627 26.828 17.5565 24.7478 17.5565 19.578V7.98413H13.2051V19.578C13.2051 25.2373 17.2241 28.847 22.3914 28.847C23.7512 28.847 26.2291 28.327 27.4982 26.2468L28.0421 28.5105H31.6381V7.98413H27.2867V22.9736Z" fill="#14427C"/>
<path d="M63.7603 25.0231C60.7688 25.0231 57.5354 22.8206 57.5354 18.2932C57.5354 13.7352 60.7688 11.6244 63.7603 11.6244C66.8426 11.6244 69.9248 13.7352 69.9248 18.2932C69.9248 22.8206 66.8426 25.0231 63.7603 25.0231ZM63.7603 7.58643C57.6865 7.58643 53.1538 12.2668 53.1538 18.2626C53.1538 24.2278 57.6865 28.9693 63.7603 28.9693C69.8644 28.9693 74.3064 24.2278 74.3064 18.2626C74.3064 12.2668 69.8644 7.58643 63.7603 7.58643Z" fill="#14427C"/>
<path d="M93.1321 22.056V11.7163H96.9093V7.98422H93.1321V2.26376L88.9318 2.75321V7.98422H81.8305V6.45469C81.8305 4.98633 82.6766 3.7933 84.5199 3.73211C84.9732 3.70152 85.4869 3.7627 86.061 3.88507V0.153C85.3963 0.0306372 84.7315 4.64562e-05 84.1573 4.64562e-05C80.0477 -0.0305443 77.5093 2.35553 77.5093 6.45469V7.98422H74.6386H74.6084V11.7163H77.5093V28.5412H81.8305V11.7163H88.9318V22.1783C88.9318 27.134 92.286 29.0612 97 28.6024V24.7173C94.1293 25.268 93.1321 23.7079 93.1321 22.056Z" fill="#14427C"/>
<path d="M38.7698 7.98413H33.7234L40.462 18.2626L33.5723 28.5717H38.2259L45.1156 18.2626L38.7698 7.98413Z" fill="#14427C"/>
<path d="M53.3048 7.98413H48.5908L45.9316 12.0527L48.198 15.693L53.3048 7.98413Z" fill="#14427C"/>
<path d="M48.1978 20.7712L45.8105 24.2586L48.6208 28.5719H53.3651L48.1978 20.7712Z" fill="#14427C"/>
<path d="M6.25514 24.503C5.22773 24.503 4.41184 23.6465 4.41184 22.6064V2.75305L0 2.29419V23.1265C0 26.1549 2.38723 28.6022 5.37882 28.6022H11.8153V24.503H6.25514Z" fill="#14427C"/>
</g>
<defs>
<clipPath id="clip0">
<rect width="97" height="29" fill="white"/>
</clipPath>
</defs>
</svg>
